<?xml version="1.0" encoding="UTF-8" standalone="no"?>
<svg width="315px" height="145px" viewBox="0 0 315 145" version="1.1" xmlns="http://www.w3.org/2000/svg" xmlns:xlink="http://www.w3.org/1999/xlink" xmlns:sketch="http://www.bohemiancoding.com/sketch/ns">
    <!-- Generator: Sketch 3.4.2 (15855) - http://www.bohemiancoding.com/sketch -->
    <title>Logo</title>
    <desc>Created with Sketch.</desc>
    <defs>
        <radialGradient cx="50%" cy="50%" fx="50%" fy="50%" r="47.526706%" id="radialGradient-1">
            <stop stop-color="#F9EB50" offset="0%"></stop>
            <stop stop-color="#FF5D00" offset="100%"></stop>
        </radialGradient>
        <circle id="path-2" cx="66.5" cy="66.5" r="66.5"></circle>
    </defs>
    <g id="Page-1" stroke="none" stroke-width="1" fill="none" fill-rule="evenodd" sketch:type="MSPage">
        <g id="Start" sketch:type="MSArtboardGroup" transform="translate(-178.000000, -115.000000)">
            <g id="Logo" sketch:type="MSLayerGroup" transform="translate(177.000000, 116.000000)">
                <g id="Ball" transform="translate(91.000000, 0.000000)">
                    <g id="Oval-1">
                        <use stroke-opacity="0.299592391" stroke="#FF2C03" stroke-width="1" fill="url(#radialGradient-1)" sketch:type="MSShapeGroup" xlink:href="#path-2"></use>
                        <use stroke="none" fill-opacity="0.359999985" fill="none" xlink:href="#path-2"></use>
                    </g>
                    <path d="M39,123 C61.5410156,123 63.1074219,130.238281 63.1074219,130.238281 L74.953125,125.412109 L80.6269531,142.585938 L97.1484375,137.759766 L100.060547,123.521484 L112.212891,129.542969" id="Path-2" stroke="#FFC985" sketch:type="MSShapeGroup"></path>
                    <path d="M59,125.193359 L67.8027344,114.869141 L62.0429688,102" id="Path-3" stroke="#FFC985" sketch:type="MSShapeGroup"></path>
                    <path d="M105.302734,53.8222656 L112.041016,28.890625 L102.933594,14.4570313 L103.083984,5.76171875 L91.5859375,0 L86,1.04296875" id="Path-4" stroke="#FFC985" sketch:type="MSShapeGroup"></path>
                    <path d="M108.234375,21.2167969 L94.8007812,15.9765625 L82.5859375,8 L69,9.56445312" id="Path-5" stroke="#FFC985" sketch:type="MSShapeGroup"></path>
                    <path d="M92.6738281,16 L88,22.1289062 L89.4570312,29.4101562" id="Path-6" stroke="#FFC985" sketch:type="MSShapeGroup"></path>
                    <path d="M7,110.759766 L29.5625,110.238281 L42.3222656,96.6738281 L56.1035156,96" id="Path-8" stroke="#FFC985" sketch:type="MSShapeGroup"></path>
                    <path d="M37.1738281,102.650391 L26,97.1289062 L32.5429688,86" id="Path-9" stroke="#FFC985" sketch:type="MSShapeGroup"></path>
                    <path d="M102,104.867188 L109.107422,96.5644531 L113.976562,97.6074219 L124.302734,91" id="Path-10" stroke="#FFC985" sketch:type="MSShapeGroup"></path>
                    <path d="M59.3222656,56.4960938 L50.8671875,31.8242188 L29.3027344,29.2597656 L25.8476562,21.6738281 L21.609375,15 L8,16.0214844 L11.4785156,26.0644531" id="Path-11" stroke="#FFC985" sketch:type="MSShapeGroup"></path>
                    <path d="M27.3710938,22.3027344 L32.1953125,14.6074219 L25,11" id="Path-12" stroke="#FFC985" sketch:type="MSShapeGroup"></path>
                    <path d="M45,2 L54.6074219,9.171875 L53.7167969,20.3242188 L62.6953125,26.3671875" id="Path-13" stroke="#FFC985" sketch:type="MSShapeGroup"></path>
                    <path d="M55,15 L65.4785156,17.5 L75.5429688,27.6738281 L70.9335938,32.3027344" id="Path-14" stroke="#FFC985" sketch:type="MSShapeGroup"></path>
                    <path id="Path-15" stroke="#FFC985" sketch:type="MSShapeGroup" d=""></path>
                    <path id="Path-16" stroke="#FFC985" sketch:type="MSShapeGroup" d=""></path>
                    <path id="Path-17" stroke="#FFC985" sketch:type="MSShapeGroup" d=""></path>
                    <path id="Path-18" stroke="#FFC985" sketch:type="MSShapeGroup" d=""></path>
                    <path d="M98.1674805,129.66748 L88,124.581055 L89.3369141,117" id="Path-19" stroke="#FFC985" sketch:type="MSShapeGroup"></path>
                </g>
                <text id="GODBALL" stroke="#000000" fill="#FFFFFF" sketch:type="MSTextLayer" font-family="Bauhaus 93" font-size="80" font-weight="normal">
                    <tspan x="0" y="91">GODBALL</tspan>
                </text>
            </g>
        </g>
    </g>
</svg>